<?xml version="1.0" encoding="utf-8"?>
<!-- Generator: Adobe Illustrator 16.0.0, SVG Export Plug-In . SVG Version: 6.00 Build 0)  -->
<!DOCTYPE svg PUBLIC "-//W3C//DTD SVG 1.1//EN" "http://www.w3.org/Graphics/SVG/1.1/DTD/svg11.dtd">
<svg version="1.1" id="Layer_1" xmlns="http://www.w3.org/2000/svg" xmlns:xlink="http://www.w3.org/1999/xlink" x="0px" y="0px"
	 width="18px" height="17px" viewBox="1 1 18 17" enable-background="new 1 1 18 17" xml:space="preserve">
<title>icn/erf-size copy</title>
<desc>Created with Sketch.</desc>
<g id="icn_x2F_erf-size-copy">
	<path id="Shape" fill="#5C6576" d="M17,17V7h-0.5C16.224,7,16,6.776,16,6.5S16.224,6,16.5,6h2C18.776,6,19,6.224,19,6.5
		S18.776,7,18.5,7H18v10h0.5c0.276,0,0.5,0.224,0.5,0.5S18.776,18,18.5,18h-2c-0.276,0-0.5-0.224-0.5-0.5s0.224-0.5,0.5-0.5H17z
		 M13,3H2v0.5C2,3.776,1.776,4,1.5,4S1,3.776,1,3.5v-2C1,1.224,1.224,1,1.5,1S2,1.224,2,1.5V2h11V1.5C13,1.224,13.224,1,13.5,1
		S14,1.224,14,1.5v2C14,3.776,13.776,4,13.5,4S13,3.776,13,3.5V3z M2,7v10h11V7H2z M2,6h11c0.553,0,1,0.448,1,1v10
		c0,0.553-0.447,1-1,1H2c-0.552,0-1-0.447-1-1V7C1,6.448,1.448,6,2,6z"/>
</g>
</svg>
