<?xml version="1.0" encoding="UTF-8"?>
<svg width="20px" height="20px" viewBox="0 0 20 20" version="1.1" xmlns="http://www.w3.org/2000/svg" xmlns:xlink="http://www.w3.org/1999/xlink">
    <!-- Generator: Sketch 52.6 (67491) - http://www.bohemiancoding.com/sketch -->
    <title>icn/bedrooms copy</title>
    <desc>Created with Sketch.</desc>
    <g id="icn/bedrooms-copy" stroke="none" stroke-width="1" fill="none" fill-rule="evenodd">
        <path d="M15.9987753,8.03526948 C16.3522955,8.08570895 16.6887873,8.18897456 17,8.33681558 L17,3.5 C17,3.22385763 16.7761424,3 16.5,3 L3.5,3 C3.22385763,3 3,3.22385763 3,3.5 L3,8.33681558 C3.31121268,8.18897456 3.64770448,8.08570895 4.00122466,8.03526948 C4.00041275,8.02361844 4,8.01185742 4,8 L4,6.5 C4,5.67157288 4.67157288,5 5.5,5 L8.5,5 C9.32842712,5 10,5.67157288 10,6.5 L10,8 L10,6.5 C10,5.67157288 10.6715729,5 11.5,5 L14.5,5 C15.3284271,5 16,5.67157288 16,6.5 L16,8 C16,8.01185742 15.9995873,8.02361844 15.9987753,8.03526948 Z M15,8 L15,6.5 C15,6.22385763 14.7761424,6 14.5,6 L11.5,6 C11.2238576,6 11,6.22385763 11,6.5 L11,8 L15,8 Z M5,8 L9,8 L9,6.5 C9,6.22385763 8.77614237,6 8.5,6 L5.5,6 C5.22385763,6 5,6.22385763 5,6.5 L5,8 Z M18,15 L18,17.5 C18,17.7761424 17.7761424,18 17.5,18 C17.2238576,18 17,17.7761424 17,17.5 L17,15 L3,15 L3,17.5 C3,17.7761424 2.77614237,18 2.5,18 C2.22385763,18 2,17.7761424 2,17.5 L2,15 L1,15 L1,11.5 C1,10.5463475 1.38140649,9.68177718 2,9.05050863 L2,3.5 C2,2.67157288 2.67157288,2 3.5,2 L16.5,2 C17.3284271,2 18,2.67157288 18,3.5 L18,9.04814505 L17.9999946,9.05050308 C18.6185913,9.68177211 19,10.5463447 19,11.5 L19,15 L18,15 Z M18,14 L18,11.5 C18,10.1192881 16.8807119,9 15.5,9 L4.5,9 C3.11928813,9 2,10.1192881 2,11.5 L2,14 L18,14 Z" id="Shape" fill="#5C6576" fill-rule="nonzero"></path>
    </g>
</svg>