<?xml version="1.0" encoding="utf-8"?>
<!-- Generator: Adobe Illustrator 16.0.0, SVG Export Plug-In . SVG Version: 6.00 Build 0)  -->
<!DOCTYPE svg PUBLIC "-//W3C//DTD SVG 1.1//EN" "http://www.w3.org/Graphics/SVG/1.1/DTD/svg11.dtd">
<svg version="1.1" id="Layer_1" xmlns="http://www.w3.org/2000/svg" xmlns:xlink="http://www.w3.org/1999/xlink" x="0px" y="0px"
	 width="16px" height="15px" viewBox="2 3 16 15" enable-background="new 2 3 16 15" xml:space="preserve">
<title>icn/floor-size copy</title>
<desc>Created with Sketch.</desc>
<g id="icn_x2F_floor-size-copy">
	<path id="Path" fill="#5C6576" d="M9,17h8v-6h-1.5c-0.276,0-0.5-0.224-0.5-0.5s0.224-0.5,0.5-0.5H17V4h-4
		c-0.276,0-0.5-0.224-0.5-0.5S12.724,3,13,3h4.5C17.776,3,18,3.224,18,3.5v14c0,0.276-0.224,0.5-0.5,0.5h-15
		C2.224,18,2,17.776,2,17.5v-14C2,3.224,2.224,3,2.5,3H7c0.104,0,0.206,0.033,0.291,0.093l3.5,2.5
		c0.225,0.161,0.276,0.473,0.115,0.697c-0.16,0.225-0.472,0.277-0.697,0.116L6.84,4H3v13h5v-6H6.5C6.224,11,6,10.776,6,10.5
		S6.224,10,6.5,10h5c0.276,0,0.5,0.224,0.5,0.5S11.776,11,11.5,11H9V17z"/>
</g>
</svg>
