<?xml version="1.0" standalone="no"?>
<!DOCTYPE svg PUBLIC "-//W3C//DTD SVG 20010904//EN"
 "http://www.w3.org/TR/2001/REC-SVG-20010904/DTD/svg10.dtd">
<svg version="1.0" xmlns="http://www.w3.org/2000/svg"
 width="1118.000000pt" height="463.000000pt" viewBox="0 0 1118.000000 463.000000"
 preserveAspectRatio="xMidYMid meet">

<g transform="translate(0.000000,463.000000) scale(0.100000,-0.100000)"
fill="#000000" stroke="none">
<path d="M8610 3350 c0 -147 4 -230 10 -230 6 0 10 -7 10 -16 0 -56 98 -185
176 -230 80 -47 130 -54 387 -54 l237 0 0 255 c0 163 -4 255 -10 255 -5 0 -10
7 -10 15 0 49 -87 151 -161 191 -77 41 -97 44 -371 44 l-268 0 0 -230z"/>
<path d="M2170 3160 c-177 -7 -223 -17 -289 -67 -103 -75 -141 -175 -141 -370
l0 -123 -160 0 c-88 0 -160 -3 -160 -7 1 -5 14 -53 29 -108 l28 -100 132 -3
131 -3 2 -592 3 -592 140 0 140 0 3 580 c1 384 6 583 13 590 5 5 76 12 160 15
l151 5 0 105 0 105 -161 3 -161 2 0 110 c0 111 10 153 39 167 9 4 76 10 149
13 l133 5 0 128 c0 70 0 132 -1 137 0 6 -3 9 -7 8 -5 -1 -82 -5 -173 -8z"/>
<path d="M6684 3157 c-2 -7 -3 -167 -2 -354 l3 -341 -25 19 c-192 150 -368
176 -552 83 -67 -34 -157 -120 -191 -182 -54 -99 -61 -158 -61 -487 0 -329 7
-388 61 -487 33 -61 124 -148 189 -181 65 -33 159 -57 220 -57 98 0 249 59
323 125 l38 35 -5 -70 -5 -71 149 3 149 3 0 985 0 985 -143 3 c-112 2 -144 0
-148 -11z m-149 -856 c51 -24 88 -63 117 -126 22 -48 23 -61 23 -280 0 -219
-1 -232 -23 -280 -49 -107 -114 -147 -238 -147 -102 0 -161 24 -205 85 -43 60
-59 127 -66 277 -12 296 38 442 167 478 61 18 180 14 225 -7z"/>
<path d="M4870 2606 c-79 -18 -137 -46 -203 -100 l-57 -46 0 70 0 70 -145 0
-145 0 2 -702 3 -703 140 0 140 0 5 465 c4 418 7 469 23 504 48 107 129 158
249 158 94 0 146 -21 201 -82 72 -80 71 -70 74 -588 l4 -463 142 3 142 3 3
475 c2 314 -1 498 -9 542 -32 198 -180 352 -378 394 -78 16 -117 16 -191 0z"/>
<path d="M7742 2605 c-41 -8 -103 -27 -138 -44 -69 -32 -174 -123 -173 -150 0
-14 196 -171 214 -171 4 0 16 11 27 25 11 14 39 36 61 48 38 20 57 22 182 22
123 0 146 -3 187 -22 73 -33 88 -66 88 -190 l0 -103 -243 0 c-267 0 -306 -6
-403 -61 -178 -101 -247 -350 -151 -544 88 -178 320 -274 566 -236 94 15 148
38 194 85 21 20 37 33 38 29 0 -4 0 -29 -1 -55 l-1 -48 146 0 146 0 -3 553
c-3 550 -3 552 -26 609 -48 120 -168 209 -327 244 -101 22 -294 26 -383 9z
m448 -919 c0 -129 -21 -175 -95 -214 -47 -24 -255 -29 -328 -8 -136 40 -187
175 -98 260 51 49 87 55 314 56 l207 0 0 -94z"/>
<path d="M2710 2082 c0 -493 1 -522 20 -577 56 -163 170 -269 340 -316 93 -25
153 -24 249 6 74 24 184 91 207 127 6 8 11 -13 14 -57 l5 -70 143 -3 142 -3 0
706 0 705 -145 0 -145 0 0 -448 c0 -525 0 -525 -84 -609 -132 -132 -341 -98
-434 71 -15 28 -18 82 -22 506 l-5 475 -142 3 -143 3 0 -519z"/>
</g>
</svg>
